<?xml version="1.0" encoding="utf-8"?>
<!-- Generator: Adobe Illustrator 16.0.0, SVG Export Plug-In . SVG Version: 6.00 Build 0)  -->
<!DOCTYPE svg PUBLIC "-//W3C//DTD SVG 1.1//EN" "http://www.w3.org/Graphics/SVG/1.1/DTD/svg11.dtd">
<svg version="1.1" id="Layer_1" xmlns="http://www.w3.org/2000/svg" xmlns:xlink="http://www.w3.org/1999/xlink" x="0px" y="0px"
	 width="174.529px" height="40.602px" viewBox="0 0 174.529 40.602" enable-background="new 0 0 174.529 40.602"
	 xml:space="preserve">
<path d="M112.629,36.655c-1.902,0-2.305-1.786-2.305-4.033c0-2.42,0.662-3.974,2.36-3.974c1.066,0,1.845,0.431,2.334,2.304
	l4.782-1.499c-0.893-2.592-2.506-4.896-7.058-4.896c-3.399,0-8.123,1.614-8.123,8.037c0,6.339,4.292,8.008,7.921,8.008
	c4.466,0,6.425-2.534,7.317-4.839l-4.724-1.585C114.616,36.194,113.55,36.655,112.629,36.655 M126.355,20.243h-5.555v15.385
	c0,3.008,0.495,4.86,5.757,4.86c1.128,0,3.131-0.177,3.502-0.262v-3.99c-0.371,0.086-1.1,0.173-1.592,0.173
	c-1.62,0-2.112-0.404-2.112-2.054v-5.594h3.704v-4.074h-3.704V20.243z M97.84,35.22c-0.37,0.478-1.303,0.927-2.769,0.927
	c-0.747,0-1.338-0.361-1.338-1.14c0-1.224,1.144-1.972,4.106-2.061V35.22z M103.395,30.702c0-4.517-1.732-6.729-6.458-6.729
	c-3.022,0-5.088,0.722-6.601,1.608l1.714,3.969c1.19-0.685,2.569-1.18,4.049-1.18c1.376,0,1.741,0.567,1.741,1.345v0.209
	c-6.667,0.299-9.857,2.483-9.857,6.072c0,3.141,2.294,4.547,4.598,4.547c2.364,0,4.019-0.958,5.335-2.604
	c0,0.899,0.159,1.563,0.37,2.303h5.86c-0.328-0.74-0.751-1.911-0.751-3.825V30.702z M89.321,24.688h-3.332v-0.189
	c0-1.641,0.918-1.699,1.926-1.699c0.49,0,1.036,0.086,1.406,0.173v-3.888c-0.37-0.086-2.382-0.259-3.505-0.259
	c-5.242,0-5.754,2.88-5.754,5.443v15.974h5.927V28.761h3.332V24.688z M173.953,25.058l-0.272,0.978l-0.268-0.978h-1.849v0.37h0.371
	v1.112h0.371v-1.112h0.37v1.112h0.37v-0.874l0.46,0.874h0.313l0.338-0.881v0.881h0.371v-1.482H173.953z M131.541,23.207h5.555
	v-2.963h-5.555V23.207z M73.045,30.434c-1.555-0.202-2.361-0.462-2.361-1.181c0-0.692,0.633-0.98,1.584-0.98
	c1.238,0,2.88,0.577,4.551,1.555l2.103-3.139c-1.872-1.354-3.832-2.132-7.202-2.132c-3.485,0-6.308,1.757-6.308,5.213
	c0,4.005,3.716,4.609,6.337,4.986c1.67,0.228,2.392,0.489,2.392,1.295c0,0.72-0.865,1.009-1.844,1.009
	c-1.758,0-4.09-0.721-5.531-1.873l-2.103,3.197c1.699,1.238,4.062,2.218,7.663,2.218c3.572,0,7.085-1.41,7.085-5.503
	C79.411,31.355,75.667,30.779,73.045,30.434 M166.33,24.557c-2.852,0-4.42,1.614-5.161,2.68v-2.549h-5.555v15.555h5.555v-9.924
	c1.111-0.606,1.691-1.094,2.671-1.094c0.952,0,1.403,0.603,1.403,1.67v9.348h5.555V29.021
	C170.798,25.709,168.749,24.557,166.33,24.557 M146.568,36.655c-1.987,0-2.534-1.786-2.534-4.033c0-2.42,0.663-3.974,2.534-3.974
	c1.96,0,2.534,1.729,2.534,3.974C149.103,35.07,148.441,36.655,146.568,36.655 M146.568,24.557c-3.743,0-8.237,1.614-8.237,8.037
	c0,6.339,4.521,8.008,8.237,8.008c3.717,0,8.239-1.669,8.239-8.008C154.808,26.17,150.285,24.557,146.568,24.557 M131.541,40.242
	h5.555V24.688h-5.555V40.242z M40.436,35.22c-0.74,0.478-1.337,0.927-2.803,0.927c-0.747,0-1.322-0.361-1.322-1.14
	c0-1.224,1.162-1.972,4.125-2.061V35.22z M45.991,30.702c0-4.517-1.766-6.729-6.492-6.729c-4.307,0-6.762,1.466-8.226,2.781
	l2.451,3.351c1.345-0.959,3.086-1.735,4.941-1.735c1.374,0,1.771,0.567,1.771,1.345v0.209c-6.666,0.299-9.893,2.483-9.893,6.072
	c0,3.141,2.278,4.547,4.581,4.547c2.364,0,4.012-0.958,5.327-2.604c0,0.899,0.151,1.563,0.361,2.303h5.862
	c-0.33-0.74-0.683-1.911-0.683-3.825V30.702z M53.028,20.243h-5.555v15.385c0,3.008,0.494,4.86,5.756,4.86
	c1.128,0,3.132-0.177,3.502-0.262v-3.99c-0.37,0.086-1.1,0.173-1.591,0.173c-1.62,0-2.112-0.404-2.112-2.054v-5.594h3.703v-4.074
	h-3.703V20.243z M23.677,30.434c-1.556-0.202-2.363-0.462-2.363-1.181c0-0.692,0.634-0.98,1.584-0.98
	c1.238,0,2.88,0.577,4.552,1.555l2.101-3.139c-1.871-1.354-3.83-2.132-7.2-2.132c-3.485,0-6.309,1.757-6.309,5.213
	c0,4.005,3.717,4.609,6.338,4.986c1.671,0.228,2.391,0.489,2.391,1.295c0,0.72-0.865,1.009-1.843,1.009
	c-1.758,0-4.091-0.721-5.531-1.873l-2.103,3.197c1.699,1.238,4.062,2.218,7.662,2.218c3.571,0,7.086-1.41,7.086-5.503
	C30.042,31.355,26.298,30.779,23.677,30.434 M58.213,23.207h5.555v-2.963h-5.555V23.207z M58.213,40.242h5.555V24.688h-5.555V40.242
	z"/>
<g>
	<path d="M20.088,15.245c0.702-0.142,1.442-0.662,1.379-1.335c-0.04-0.419-0.314-0.605-0.764-0.513
		c-0.793,0.159-1.165,0.882-1.272,1.887C19.524,15.302,19.746,15.312,20.088,15.245z"/>
	<path d="M11.665,15.506c-1.133,0.228-1.6,3.045-1.475,4.371c0.091,0.964,0.345,1.134,0.867,1.028
		c0.306-0.061,0.66-0.577,0.737-0.74l0.534-4.626C12.264,15.441,11.953,15.448,11.665,15.506z"/>
	<path d="M39.28,16.936l-4.218-2.648l1.731-4.671l-4.909-0.833l-0.187-4.977l-4.855,1.109L24.763,0.39l-4.061,2.884L17.051,0
		l-2.648,4.104l-4.67-1.732L8.899,7.281L3.922,7.469l1.109,4.856l-4.527,2.076l2.884,4.062L0,22.114l4.217,2.648l-1.731,4.671
		l4.91,0.832l0.188,4.979l4.855-1.11l1.888,3.47l2.342-3.562c-1.088-0.902-1.864-2.242-1.864-4.271c0-3.858,3.033-6.449,7.546-6.449
		c3.307,0,5.604,0.685,7.926,2.365l0.218,0.158l0.009-0.009c2.135-1.919,4.948-2.954,8.368-3.085l-2.979-2.162L39.28,16.936z
		 M14.745,22.535c-0.086,0.938-0.178,1.657-0.347,2.022c-0.704,1.543-2.335,2.498-4.481,2.93c-1.385,0.278-2.752,0.165-3.427-0.18
		l0.859-2.172c0.464,0.257,1.265,0.393,2.543,0.134c0.989-0.199,1.647-0.998,1.715-1.844c0.025-0.302,0.052-0.604,0.158-0.847
		c-0.33,0.4-0.848,0.726-1.676,0.893c-1.782,0.358-2.803-0.362-3.033-2.796c-0.179-1.908,0.265-6.72,5.051-7.684
		c1.259-0.252,2.411-0.389,3.601-0.221C15.708,12.77,14.841,21.502,14.745,22.535z M19.125,18.071
		c0.086,0.908,0.451,1.095,1.406,0.904c0.793-0.161,1.783-0.749,2.524-1.455l0.8,1.86c-1.398,1.134-2.754,1.741-3.709,1.933
		c-2.666,0.536-3.974-0.293-4.198-2.676c-0.326-3.457,1.411-6.829,4.851-7.522c1.946-0.391,3.584,0.04,3.765,1.967
		c0.165,1.747-1.289,3.652-4.333,4.264c-0.522,0.107-0.958,0.158-1.106,0.15C19.107,17.685,19.117,17.981,19.125,18.071z
		 M30.025,11.255l-1.277,0.271l-0.412,4.181c-0.133,1.364-0.001,1.627,0.789,1.461c0.288-0.061,0.586-0.198,0.807-0.357l0.171,1.819
		c-0.821,0.564-1.63,0.902-2.259,1.034c-1.957,0.416-2.984,0.157-2.778-1.909l0.542-5.564l-0.707,0.149l0.224-2.142l0.702-0.161
		l0.213-2.178l3.183-1.163l-0.262,2.672l1.691-0.361L30.025,11.255z"/>
</g>
</svg>
